<svg width="32" height="29" viewBox="0 0 32 29" fill="none" xmlns="http://www.w3.org/2000/svg">
<path fill-rule="evenodd" clip-rule="evenodd" d="M16 28.4444C24.8366 28.4444 32 22.0769 32 14.2222C32 6.36751 24.8366 0 16 0C7.16344 0 0 6.36751 0 14.2222C0 22.0769 7.16344 28.4444 16 28.4444Z" fill="#212121"/>
<path d="M17.3933 21.3336V14.8461H19.843L20.2098 12.3178H17.3933V10.7037C17.3933 9.9717 17.622 9.47287 18.8028 9.47287L20.309 9.47228V7.21098C20.0485 7.18017 19.1544 7.11133 18.1143 7.11133C15.9427 7.11133 14.456 8.28956 14.456 10.4533V12.3178H12V14.8461H14.456V21.3336H17.3933Z" fill="#DD7917"/>
</svg>
