<svg width="32" height="29" viewBox="0 0 32 29" fill="none" xmlns="http://www.w3.org/2000/svg">
<path fill-rule="evenodd" clip-rule="evenodd" d="M16 28.4444C24.8366 28.4444 32 22.0769 32 14.2222C32 6.36751 24.8366 0 16 0C7.16344 0 0 6.36751 0 14.2222C0 22.0769 7.16344 28.4444 16 28.4444Z" fill="#212121"/>
<path fill-rule="evenodd" clip-rule="evenodd" d="M19.4995 8H12.4995C10.5747 8 8.99951 9.39953 8.99951 11.1111V17.3333C8.99951 19.0443 10.5747 20.4444 12.4995 20.4444H19.4995C21.4243 20.4444 22.9995 19.0443 22.9995 17.3333V11.1111C22.9995 9.39953 21.4243 8 19.4995 8ZM15.9992 16.8155C14.3881 16.8155 13.0824 15.6544 13.0824 14.223C13.0824 12.791 14.3881 11.6304 15.9992 11.6304C17.6095 11.6304 18.9159 12.791 18.9159 14.223C18.9159 15.6544 17.6095 16.8155 15.9992 16.8155ZM18.9163 10.8525C18.9163 11.282 19.3076 11.6303 19.7913 11.6303C20.275 11.6303 20.6663 11.282 20.6663 10.8525C20.6663 10.423 20.275 10.0747 19.7913 10.0747C19.3076 10.0747 18.9163 10.423 18.9163 10.8525Z" fill="#DD7917"/>
</svg>
