<svg width="32" height="29" viewBox="0 0 32 29" fill="none" xmlns="http://www.w3.org/2000/svg">
<path fill-rule="evenodd" clip-rule="evenodd" d="M16 28.4444C24.8366 28.4444 32 22.0769 32 14.2222C32 6.36751 24.8366 0 16 0C7.16344 0 0 6.36751 0 14.2222C0 22.0769 7.16344 28.4444 16 28.4444Z" fill="#212121"/>
<path fill-rule="evenodd" clip-rule="evenodd" d="M10.6934 11.1771C9.87628 11.0957 9.27598 10.436 9.33517 9.68445C9.39437 8.93292 10.0918 8.35913 10.9133 8.38617C11.7347 8.41321 12.3855 9.03136 12.3858 9.78485C12.3356 10.5967 11.5793 11.2188 10.6934 11.1771ZM19.5532 20.2463V15.9336C19.5532 15.0508 19.2736 14.1641 18.1375 14.1641C17.0014 14.1641 16.5254 15.0508 16.5254 15.9569V20.2463H13.4972V12.348H16.5284V13.4136C17.3259 12.4841 18.0192 12.0991 19.2758 12.0991C20.5324 12.0991 22.5781 12.6397 22.5781 15.7586V20.2463H19.5553H19.5532ZM9.16992 20.246H12.2058H12.2062V12.3477H9.16992V20.246Z" fill="#A0CF46"/>
</svg>
