<svg width="33" height="29" viewBox="0 0 33 29" fill="none" xmlns="http://www.w3.org/2000/svg">
<path fill-rule="evenodd" clip-rule="evenodd" d="M16.875 28.4444C25.7116 28.4444 32.875 22.0769 32.875 14.2222C32.875 6.36751 25.7116 0 16.875 0C8.03844 0 0.875 6.36751 0.875 14.2222C0.875 22.0769 8.03844 28.4444 16.875 28.4444Z" fill="#212121"/>
<path d="M24.7918 10.2716C24.693 10.1776 24.5356 10.1543 24.4078 10.2147C24.253 10.2777 24.0924 10.3291 23.9278 10.3683C24.1719 10.0979 24.3564 9.78914 24.4718 9.45805C24.5034 9.34332 24.4519 9.22319 24.3424 9.15623C24.233 9.08926 24.0884 9.08939 23.979 9.15654C23.4691 9.40726 22.9249 9.59847 22.3598 9.72543C21.7529 9.18868 20.9312 8.88792 20.075 8.88916C19.392 8.90251 18.7268 9.0858 18.155 9.41823C16.939 10.0269 16.7278 11.4321 16.8174 12.3025C14.5631 12.1335 12.4834 11.1558 11.0574 9.59459C10.9991 9.51483 10.9018 9.46422 10.795 9.45805C10.6883 9.46445 10.5923 9.51782 10.539 9.60028C9.87975 10.6151 9.93451 11.8763 10.6798 12.8429C10.5838 12.7861 10.4814 12.7178 10.379 12.6438C10.2836 12.5597 10.1391 12.5376 10.0175 12.5885C9.89586 12.6393 9.82297 12.7524 9.83505 12.8714C9.85446 13.93 10.4511 14.9143 11.435 15.511L11.1854 15.4485C11.0668 15.4156 10.9374 15.4469 10.8537 15.5286C10.7701 15.6103 10.7472 15.7276 10.795 15.8296C11.2973 16.8381 12.2812 17.5937 13.4766 17.889C12.3869 18.4486 11.1243 18.6838 9.87345 18.5603C9.72223 18.5437 9.5788 18.6241 9.53062 18.7526C9.48244 18.8811 9.54286 19.022 9.67505 19.0893C11.1799 19.8696 12.8929 20.2763 14.635 20.2669C17.0955 20.2491 19.4279 19.2892 21.035 17.633C22.636 16.1078 23.4781 14.0735 23.371 11.9896C23.9414 11.6022 24.4328 11.1308 24.8238 10.5958C24.8907 10.4925 24.8779 10.363 24.7918 10.2716Z" fill="#A0CF46"/>
</svg>
